<svg xmlns="http://www.w3.org/2000/svg" width="195.147" height="35.476" viewBox="0 0 195.147 35.476">
  <g id="Illustration_7" data-name="Illustration 7" transform="translate(97.574 17.738)">
    <g id="Groupe_31" data-name="Groupe 31" transform="translate(-97.574 -17.738)">
      <g id="Groupe_24" data-name="Groupe 24">
        <path id="Tracé_29" data-name="Tracé 29" d="M127.3,66.492l-3.546,7.6h12.331s10.566.268,10.566-8.738c0-8.31-10.526-8.578-10.526-8.578H123.956v7.171h4.516V60.663H134.4c1.778,0,6.118.885,6.118,4.855s-4.325,5.053-6.118,5.053h-4.271l1.914-4.079Z" transform="translate(-103.32 -47.404)" fill="#f7f7f7"/>
        <path id="Tracé_30" data-name="Tracé 30" d="M21.1,34.779a62.663,62.663,0,0,0,9,.7c9.37.047,19.495-2.052,25.9-8.246a13.675,13.675,0,0,0,4.2-9.492A13.679,13.679,0,0,0,56,8.246C49.591,2.051,39.47-.046,30.1,0a62.728,62.728,0,0,0-9,.7C12.073,2.075.316,7.031,0,17.738.312,28.443,12.074,33.406,21.1,34.779ZM13.991,6.829C18.245,4.571,24.173,3.746,30.1,3.746s11.856.824,16.109,3.082c5.522,2.966,7.857,6.938,7.856,10.91s-2.34,7.947-7.856,10.91C41.957,30.906,36.029,31.73,30.1,31.73s-11.856-.824-16.11-3.082c-4.218-2.262-7.8-6.043-7.856-10.91C6.19,12.874,9.773,9.087,13.991,6.829Z" transform="translate(0 0)" fill="#f7f7f7"/>
      </g>
      <g id="Groupe_25" data-name="Groupe 25" transform="translate(68.785 9.157)">
        <path id="Tracé_31" data-name="Tracé 31" d="M425.352,55.453h-8.818V72.614h8.779s10.471.265,10.471-8.66C435.783,55.718,425.352,55.453,425.352,55.453Zm.027,13.667h-4.37V59.3h4.37c1.762,0,5.929.877,5.929,4.811S427.156,69.12,425.379,69.12Z" transform="translate(-416.534 -55.453)" fill="#f7f7f7"/>
        <path id="Tracé_32" data-name="Tracé 32" d="M942.424,55.453h-8.818V72.614h8.778s10.471.265,10.471-8.66C952.855,55.718,942.424,55.453,942.424,55.453Zm.027,13.667h-4.37V59.3h4.37c1.762,0,5.929.877,5.929,4.811S944.228,69.12,942.451,69.12Z" transform="translate(-848.219 -55.453)" fill="#f7f7f7"/>
        <path id="Tracé_33" data-name="Tracé 33" d="M1064.1,68.766V65.537l9.149.019V62.511H1064.1V59.3l9.909.019V55.453h-14.385V72.614h14.625V68.766Z" transform="translate(-953.429 -55.453)" fill="#f7f7f7"/>
        <path id="Tracé_34" data-name="Tracé 34" d="M667.681,55.454l-4.5,11.123-4.5-11.123H650.8V72.614h4.475V59.3l5.363,13.313h5.084L671.088,59.3V72.614h4.475V55.453Z" transform="translate(-612.117 -55.453)" fill="#f7f7f7"/>
        <path id="Tracé_35" data-name="Tracé 35" d="M814.877,55.453l-5.565,17.161h4.962l1.139-3.512h6.363l1.139,3.512h4.993l-5.565-17.161Zm1.531,10.6L818.6,59.3l2.191,6.756Z" transform="translate(-744.45 -55.453)" fill="#f7f7f7"/>
        <path id="Tracé_36" data-name="Tracé 36" d="M550.48,65.537l9.149.019V62.511H550.48V59.283l9.909.019V55.453H546V72.614H560.63V68.766H550.48Z" transform="translate(-524.624 -55.453)" fill="#f7f7f7"/>
      </g>
      <g id="Groupe_30" data-name="Groupe 30" transform="translate(191.019 1.652)">
        <g id="Groupe_26" data-name="Groupe 26" transform="translate(0 0)">
          <path id="Tracé_37" data-name="Tracé 37" d="M1158.8,14.056a2.026,2.026,0,1,1,2.064-2.026A2.048,2.048,0,0,1,1158.8,14.056Zm0-3.557a1.531,1.531,0,1,0,1.569,1.531A1.552,1.552,0,0,0,1158.8,10.5Z" transform="translate(-1156.735 -10.004)" fill="#f7f7f7"/>
        </g>
        <g id="Groupe_27" data-name="Groupe 27" transform="translate(0.973 2.026)">
          <path id="Tracé_38" data-name="Tracé 38" d="M1163.721,23.364a1.092,1.092,0,0,1-1.091-1.091h.33a.76.76,0,1,0,1.521,0h.33A1.092,1.092,0,0,1,1163.721,23.364Z" transform="translate(-1162.63 -22.273)" fill="#f7f7f7"/>
        </g>
        <g id="Groupe_28" data-name="Groupe 28" transform="translate(1.463 1.21)">
          <rect id="Rectangle_10" data-name="Rectangle 10" width="0.33" height="0.727" fill="#f7f7f7"/>
        </g>
        <g id="Groupe_29" data-name="Groupe 29" transform="translate(2.335 1.21)">
          <rect id="Rectangle_11" data-name="Rectangle 11" width="0.33" height="0.727" fill="#f7f7f7"/>
        </g>
      </g>
    </g>
  </g>
</svg>
